<?xml version="1.0" encoding="UTF-8"?>
<!DOCTYPE svg PUBLIC "-//W3C//DTD SVG 1.1//EN" "http://www.w3.org/Graphics/SVG/1.1/DTD/svg11.dtd">
<svg version="1.2" width="210mm" height="297mm" viewBox="0 0 21000 29700" preserveAspectRatio="xMidYMid" fill-rule="evenodd" stroke-width="28.222" stroke-linejoin="round" xmlns="http://www.w3.org/2000/svg" xmlns:ooo="http://xml.openoffice.org/svg/export" xmlns:xlink="http://www.w3.org/1999/xlink" xmlns:presentation="http://sun.com/xmlns/staroffice/presentation" xmlns:smil="http://www.w3.org/2001/SMIL20/" xmlns:anim="urn:oasis:names:tc:opendocument:xmlns:animation:1.0" xmlns:svg="urn:oasis:names:tc:opendocument:xmlns:svg-compatible:1.0" xml:space="preserve">
 <defs class="ClipPathGroup">
  <clipPath id="presentation_clip_path" clipPathUnits="userSpaceOnUse">
   <rect x="0" y="0" width="21000" height="29700"/>
  </clipPath>
  <clipPath id="presentation_clip_path_shrink" clipPathUnits="userSpaceOnUse">
   <rect x="21" y="29" width="20958" height="29641"/>
  </clipPath>
 </defs>
 <defs class="TextShapeIndex">
  <g ooo:slide="id1" ooo:id-list="id3 id4 id5 id6 id7 id8 id9 id10 id11 id12 id13 id14 id15 id16 id17 id18 id19 id20 id21 id22 id23 id24 id25 id26 id27 id28 id29 id30 id31 id32 id33 id34 id35 id36 id37 id38 id39 id40 id41 id42 id43 id44 id45 id46 id47 id48 id49 id50 id51 id52 id53 id54 id55 id56 id57 id58 id59 id60 id61 id62 id63 id64 id65 id66 id67 id68 id69"/>
 </defs>
 <defs class="EmbeddedBulletChars">
  <g id="bullet-char-template-57356" transform="scale(0.00048828125,-0.00048828125)">
   <path d="M 580,1141 L 1163,571 580,0 -4,571 580,1141 Z"/>
  </g>
  <g id="bullet-char-template-57354" transform="scale(0.00048828125,-0.00048828125)">
   <path d="M 8,1128 L 1137,1128 1137,0 8,0 8,1128 Z"/>
  </g>
  <g id="bullet-char-template-10146" transform="scale(0.00048828125,-0.00048828125)">
   <path d="M 174,0 L 602,739 174,1481 1456,739 174,0 Z M 1358,739 L 309,1346 659,739 1358,739 Z"/>
  </g>
  <g id="bullet-char-template-10132" transform="scale(0.00048828125,-0.00048828125)">
   <path d="M 2015,739 L 1276,0 717,0 1260,543 174,543 174,936 1260,936 717,1481 1274,1481 2015,739 Z"/>
  </g>
  <g id="bullet-char-template-10007" transform="scale(0.00048828125,-0.00048828125)">
   <path d="M 0,-2 C -7,14 -16,27 -25,37 L 356,567 C 262,823 215,952 215,954 215,979 228,992 255,992 264,992 276,990 289,987 310,991 331,999 354,1012 L 381,999 492,748 772,1049 836,1024 860,1049 C 881,1039 901,1025 922,1006 886,937 835,863 770,784 769,783 710,716 594,584 L 774,223 C 774,196 753,168 711,139 L 727,119 C 717,90 699,76 672,76 641,76 570,178 457,381 L 164,-76 C 142,-110 111,-127 72,-127 30,-127 9,-110 8,-76 1,-67 -2,-52 -2,-32 -2,-23 -1,-13 0,-2 Z"/>
  </g>
  <g id="bullet-char-template-10004" transform="scale(0.00048828125,-0.00048828125)">
   <path d="M 285,-33 C 182,-33 111,30 74,156 52,228 41,333 41,471 41,549 55,616 82,672 116,743 169,778 240,778 293,778 328,747 346,684 L 369,508 C 377,444 397,411 428,410 L 1163,1116 C 1174,1127 1196,1133 1229,1133 1271,1133 1292,1118 1292,1087 L 1292,965 C 1292,929 1282,901 1262,881 L 442,47 C 390,-6 338,-33 285,-33 Z"/>
  </g>
  <g id="bullet-char-template-9679" transform="scale(0.00048828125,-0.00048828125)">
   <path d="M 813,0 C 632,0 489,54 383,161 276,268 223,411 223,592 223,773 276,916 383,1023 489,1130 632,1184 813,1184 992,1184 1136,1130 1245,1023 1353,916 1407,772 1407,592 1407,412 1353,268 1245,161 1136,54 992,0 813,0 Z"/>
  </g>
  <g id="bullet-char-template-8226" transform="scale(0.00048828125,-0.00048828125)">
   <path d="M 346,457 C 273,457 209,483 155,535 101,586 74,649 74,723 74,796 101,859 155,911 209,963 273,989 346,989 419,989 480,963 531,910 582,859 608,796 608,723 608,648 583,586 532,535 482,483 420,457 346,457 Z"/>
  </g>
  <g id="bullet-char-template-8211" transform="scale(0.00048828125,-0.00048828125)">
   <path d="M -4,459 L 1135,459 1135,606 -4,606 -4,459 Z"/>
  </g>
  <g id="bullet-char-template-61548" transform="scale(0.00048828125,-0.00048828125)">
   <path d="M 173,740 C 173,903 231,1043 346,1159 462,1274 601,1332 765,1332 928,1332 1067,1274 1183,1159 1299,1043 1357,903 1357,740 1357,577 1299,437 1183,322 1067,206 928,148 765,148 601,148 462,206 346,322 231,437 173,577 173,740 Z"/>
  </g>
 </defs>
 <g>
  <g id="id2" class="Master_Slide">
   <g id="bg-id2" class="Background"/>
   <g id="bo-id2" class="BackgroundObjects"/>
  </g>
 </g>
 <g class="SlideGroup">
  <g>
   <g id="container-id1">
    <g id="id1" class="Slide" clip-path="url(#presentation_clip_path)">
     <g class="Page">
      <g class="com.sun.star.drawing.PolyPolygonShape">
       <g id="id3">
        <rect class="BoundingBox" stroke="none" fill="none" x="6295" y="7954" width="5110" height="3909"/>
        <path fill="rgb(0,0,0)" stroke="none" d="M 10932,11861 L 11403,11205 6637,7955 6378,8119 6296,8447 9300,10652 10932,11861 Z "/>
        <path fill="none" stroke="rgb(52,101,164)" d="M 10932,11861 L 11403,11205 6637,7955 6378,8119 6296,8447 9300,10652 10932,11861 Z "/>
       </g>
      </g>
      <g class="com.sun.star.drawing.ClosedBezierShape">
       <g id="id4">
        <rect class="BoundingBox" stroke="none" fill="none" x="3107" y="3857" width="13537" height="13537"/>
        <path fill="none" stroke="rgb(51,51,51)" stroke-width="35" stroke-linejoin="miter" d="M 16625,10625 C 16625,11810 16313,12974 15720,14000 15128,15026 14276,15878 13250,16470 12224,17063 11060,17375 9875,17375 8690,17375 7526,17063 6500,16470 5474,15878 4622,15026 4030,14000 3437,12974 3125,11810 3125,10625 3125,9440 3437,8277 4030,7250 4622,6224 5474,5372 6500,4780 7526,4187 8690,3875 9875,3875 11060,3875 12224,4187 13250,4780 14276,5372 15128,6224 15720,7250 16313,8277 16625,9440 16625,10625 Z "/>
       </g>
      </g>
      <g class="com.sun.star.drawing.LineShape">
       <g id="id5">
        <rect class="BoundingBox" stroke="none" fill="none" x="10447" y="4293" width="157" height="474"/>
        <path fill="none" stroke="rgb(0,0,0)" stroke-width="106" stroke-linejoin="miter" d="M 10549,4299 L 10500,4760 "/>
       </g>
      </g>
      <g class="com.sun.star.drawing.LineShape">
       <g id="id6">
        <rect class="BoundingBox" stroke="none" fill="none" x="11057" y="4391" width="202" height="477"/>
        <path fill="none" stroke="rgb(0,0,0)" stroke-width="106" stroke-linejoin="miter" d="M 11205,4403 L 11109,4856 "/>
       </g>
      </g>
      <g class="com.sun.star.drawing.LineShape">
       <g id="id7">
        <rect class="BoundingBox" stroke="none" fill="none" x="11653" y="4558" width="246" height="476"/>
        <path fill="none" stroke="rgb(0,0,0)" stroke-width="106" stroke-linejoin="miter" d="M 11847,4575 L 11704,5016 "/>
       </g>
      </g>
      <g class="com.sun.star.drawing.LineShape">
       <g id="id8">
        <rect class="BoundingBox" stroke="none" fill="none" x="12230" y="4791" width="288" height="468"/>
        <path fill="none" stroke="rgb(0,0,0)" stroke-width="106" stroke-linejoin="miter" d="M 12468,4813 L 12279,5236 "/>
       </g>
      </g>
      <g class="com.sun.star.drawing.LineShape">
       <g id="id9">
        <rect class="BoundingBox" stroke="none" fill="none" x="12106" y="5022" width="1116" height="1562"/>
        <path fill="none" stroke="rgb(0,0,0)" stroke-width="370" stroke-linejoin="miter" d="M 13060,5115 L 12266,6490 "/>
       </g>
      </g>
      <g class="com.sun.star.drawing.LineShape">
       <g id="id10">
        <rect class="BoundingBox" stroke="none" fill="none" x="13302" y="5445" width="360" height="439"/>
        <path fill="none" stroke="rgb(0,0,0)" stroke-width="106" stroke-linejoin="miter" d="M 13617,5477 L 13345,5852 "/>
       </g>
      </g>
      <g class="com.sun.star.drawing.LineShape">
       <g id="id11">
        <rect class="BoundingBox" stroke="none" fill="none" x="13784" y="5859" width="391" height="418"/>
        <path fill="none" stroke="rgb(0,0,0)" stroke-width="106" stroke-linejoin="miter" d="M 14134,5895 L 13824,6240 "/>
       </g>
      </g>
      <g class="com.sun.star.drawing.LineShape">
       <g id="id12">
        <rect class="BoundingBox" stroke="none" fill="none" x="14223" y="6325" width="418" height="391"/>
        <path fill="none" stroke="rgb(0,0,0)" stroke-width="106" stroke-linejoin="miter" d="M 14604,6365 L 14259,6675 "/>
       </g>
      </g>
      <g class="com.sun.star.drawing.LineShape">
       <g id="id13">
        <rect class="BoundingBox" stroke="none" fill="none" x="14616" y="6838" width="439" height="360"/>
        <path fill="none" stroke="rgb(0,0,0)" stroke-width="106" stroke-linejoin="miter" d="M 15022,6882 L 14647,7154 "/>
       </g>
      </g>
      <g class="com.sun.star.drawing.LineShape">
       <g id="id14">
        <rect class="BoundingBox" stroke="none" fill="none" x="13916" y="7278" width="1562" height="1116"/>
        <path fill="none" stroke="rgb(0,0,0)" stroke-width="370" stroke-linejoin="miter" d="M 15384,7439 L 14009,8233 "/>
       </g>
      </g>
      <g class="com.sun.star.drawing.LineShape">
       <g id="id15">
        <rect class="BoundingBox" stroke="none" fill="none" x="15241" y="7982" width="468" height="288"/>
        <path fill="none" stroke="rgb(0,0,0)" stroke-width="106" stroke-linejoin="miter" d="M 15686,8031 L 15263,8220 "/>
       </g>
      </g>
      <g class="com.sun.star.drawing.LineShape">
       <g id="id16">
        <rect class="BoundingBox" stroke="none" fill="none" x="15466" y="8601" width="476" height="246"/>
        <path fill="none" stroke="rgb(0,0,0)" stroke-width="106" stroke-linejoin="miter" d="M 15924,8652 L 15483,8795 "/>
       </g>
      </g>
      <g class="com.sun.star.drawing.LineShape">
       <g id="id17">
        <rect class="BoundingBox" stroke="none" fill="none" x="15632" y="9241" width="477" height="202"/>
        <path fill="none" stroke="rgb(0,0,0)" stroke-width="106" stroke-linejoin="miter" d="M 16096,9294 L 15643,9390 "/>
       </g>
      </g>
      <g class="com.sun.star.drawing.LineShape">
       <g id="id18">
        <rect class="BoundingBox" stroke="none" fill="none" x="15733" y="9896" width="474" height="157"/>
        <path fill="none" stroke="rgb(0,0,0)" stroke-width="106" stroke-linejoin="miter" d="M 16200,9950 L 15739,9999 "/>
       </g>
      </g>
      <g class="com.sun.star.drawing.LineShape">
       <g id="id19">
        <rect class="BoundingBox" stroke="none" fill="none" x="14647" y="10428" width="1589" height="372"/>
        <path fill="none" stroke="rgb(0,0,0)" stroke-width="370" stroke-linejoin="miter" d="M 16234,10614 L 14647,10614 "/>
       </g>
      </g>
      <g class="com.sun.star.drawing.LineShape">
       <g id="id20">
        <rect class="BoundingBox" stroke="none" fill="none" x="15733" y="11175" width="474" height="157"/>
        <path fill="none" stroke="rgb(0,0,0)" stroke-width="106" stroke-linejoin="miter" d="M 16200,11277 L 15739,11228 "/>
       </g>
      </g>
      <g class="com.sun.star.drawing.LineShape">
       <g id="id21">
        <rect class="BoundingBox" stroke="none" fill="none" x="15632" y="11785" width="477" height="202"/>
        <path fill="none" stroke="rgb(0,0,0)" stroke-width="106" stroke-linejoin="miter" d="M 16096,11933 L 15643,11837 "/>
       </g>
      </g>
      <g class="com.sun.star.drawing.LineShape">
       <g id="id22">
        <rect class="BoundingBox" stroke="none" fill="none" x="15466" y="12381" width="476" height="246"/>
        <path fill="none" stroke="rgb(0,0,0)" stroke-width="106" stroke-linejoin="miter" d="M 15924,12575 L 15483,12432 "/>
       </g>
      </g>
      <g class="com.sun.star.drawing.LineShape">
       <g id="id23">
        <rect class="BoundingBox" stroke="none" fill="none" x="15241" y="12958" width="468" height="288"/>
        <path fill="none" stroke="rgb(0,0,0)" stroke-width="106" stroke-linejoin="miter" d="M 15686,13196 L 15263,13007 "/>
       </g>
      </g>
      <g class="com.sun.star.drawing.LineShape">
       <g id="id24">
        <rect class="BoundingBox" stroke="none" fill="none" x="13916" y="12834" width="1562" height="1116"/>
        <path fill="none" stroke="rgb(0,0,0)" stroke-width="370" stroke-linejoin="miter" d="M 15384,13788 L 14009,12994 "/>
       </g>
      </g>
      <g class="com.sun.star.drawing.LineShape">
       <g id="id25">
        <rect class="BoundingBox" stroke="none" fill="none" x="14616" y="14030" width="439" height="360"/>
        <path fill="none" stroke="rgb(0,0,0)" stroke-width="106" stroke-linejoin="miter" d="M 15022,14345 L 14647,14073 "/>
       </g>
      </g>
      <g class="com.sun.star.drawing.LineShape">
       <g id="id26">
        <rect class="BoundingBox" stroke="none" fill="none" x="14223" y="14512" width="418" height="391"/>
        <path fill="none" stroke="rgb(0,0,0)" stroke-width="106" stroke-linejoin="miter" d="M 14604,14862 L 14259,14552 "/>
       </g>
      </g>
      <g class="com.sun.star.drawing.LineShape">
       <g id="id27">
        <rect class="BoundingBox" stroke="none" fill="none" x="13784" y="14951" width="391" height="418"/>
        <path fill="none" stroke="rgb(0,0,0)" stroke-width="106" stroke-linejoin="miter" d="M 14134,15332 L 13824,14987 "/>
       </g>
      </g>
      <g class="com.sun.star.drawing.LineShape">
       <g id="id28">
        <rect class="BoundingBox" stroke="none" fill="none" x="13302" y="15344" width="360" height="439"/>
        <path fill="none" stroke="rgb(0,0,0)" stroke-width="106" stroke-linejoin="miter" d="M 13617,15750 L 13345,15375 "/>
       </g>
      </g>
      <g class="com.sun.star.drawing.LineShape">
       <g id="id29">
        <rect class="BoundingBox" stroke="none" fill="none" x="12106" y="14644" width="1116" height="1562"/>
        <path fill="none" stroke="rgb(0,0,0)" stroke-width="370" stroke-linejoin="miter" d="M 13060,16112 L 12266,14737 "/>
       </g>
      </g>
      <g class="com.sun.star.drawing.LineShape">
       <g id="id30">
        <rect class="BoundingBox" stroke="none" fill="none" x="12230" y="15969" width="288" height="468"/>
        <path fill="none" stroke="rgb(0,0,0)" stroke-width="106" stroke-linejoin="miter" d="M 12468,16414 L 12279,15991 "/>
       </g>
      </g>
      <g class="com.sun.star.drawing.LineShape">
       <g id="id31">
        <rect class="BoundingBox" stroke="none" fill="none" x="11653" y="16194" width="246" height="476"/>
        <path fill="none" stroke="rgb(0,0,0)" stroke-width="106" stroke-linejoin="miter" d="M 11847,16652 L 11704,16211 "/>
       </g>
      </g>
      <g class="com.sun.star.drawing.LineShape">
       <g id="id32">
        <rect class="BoundingBox" stroke="none" fill="none" x="11057" y="16360" width="202" height="477"/>
        <path fill="none" stroke="rgb(0,0,0)" stroke-width="106" stroke-linejoin="miter" d="M 11205,16824 L 11109,16371 "/>
       </g>
      </g>
      <g class="com.sun.star.drawing.LineShape">
       <g id="id33">
        <rect class="BoundingBox" stroke="none" fill="none" x="10447" y="16461" width="157" height="474"/>
        <path fill="none" stroke="rgb(0,0,0)" stroke-width="106" stroke-linejoin="miter" d="M 10549,16928 L 10500,16467 "/>
       </g>
      </g>
      <g class="com.sun.star.drawing.LineShape">
       <g id="id34">
        <rect class="BoundingBox" stroke="none" fill="none" x="9700" y="15375" width="372" height="1589"/>
        <path fill="none" stroke="rgb(0,0,0)" stroke-width="370" stroke-linejoin="miter" d="M 9886,16962 L 9886,15375 "/>
       </g>
      </g>
      <g class="com.sun.star.drawing.LineShape">
       <g id="id35">
        <rect class="BoundingBox" stroke="none" fill="none" x="9168" y="16461" width="157" height="474"/>
        <path fill="none" stroke="rgb(0,0,0)" stroke-width="106" stroke-linejoin="miter" d="M 9222,16928 L 9271,16467 "/>
       </g>
      </g>
      <g class="com.sun.star.drawing.LineShape">
       <g id="id36">
        <rect class="BoundingBox" stroke="none" fill="none" x="8513" y="16360" width="202" height="477"/>
        <path fill="none" stroke="rgb(0,0,0)" stroke-width="106" stroke-linejoin="miter" d="M 8566,16824 L 8662,16371 "/>
       </g>
      </g>
      <g class="com.sun.star.drawing.LineShape">
       <g id="id37">
        <rect class="BoundingBox" stroke="none" fill="none" x="7873" y="16194" width="246" height="476"/>
        <path fill="none" stroke="rgb(0,0,0)" stroke-width="106" stroke-linejoin="miter" d="M 7924,16652 L 8067,16211 "/>
       </g>
      </g>
      <g class="com.sun.star.drawing.LineShape">
       <g id="id38">
        <rect class="BoundingBox" stroke="none" fill="none" x="7254" y="15969" width="288" height="468"/>
        <path fill="none" stroke="rgb(0,0,0)" stroke-width="106" stroke-linejoin="miter" d="M 7303,16414 L 7492,15991 "/>
       </g>
      </g>
      <g class="com.sun.star.drawing.LineShape">
       <g id="id39">
        <rect class="BoundingBox" stroke="none" fill="none" x="6550" y="14644" width="1116" height="1562"/>
        <path fill="none" stroke="rgb(0,0,0)" stroke-width="370" stroke-linejoin="miter" d="M 6711,16112 L 7505,14737 "/>
       </g>
      </g>
      <g class="com.sun.star.drawing.LineShape">
       <g id="id40">
        <rect class="BoundingBox" stroke="none" fill="none" x="6110" y="15344" width="360" height="439"/>
        <path fill="none" stroke="rgb(0,0,0)" stroke-width="106" stroke-linejoin="miter" d="M 6154,15750 L 6426,15375 "/>
       </g>
      </g>
      <g class="com.sun.star.drawing.LineShape">
       <g id="id41">
        <rect class="BoundingBox" stroke="none" fill="none" x="5597" y="14951" width="391" height="418"/>
        <path fill="none" stroke="rgb(0,0,0)" stroke-width="106" stroke-linejoin="miter" d="M 5637,15332 L 5947,14987 "/>
       </g>
      </g>
      <g class="com.sun.star.drawing.LineShape">
       <g id="id42">
        <rect class="BoundingBox" stroke="none" fill="none" x="5131" y="14512" width="418" height="391"/>
        <path fill="none" stroke="rgb(0,0,0)" stroke-width="106" stroke-linejoin="miter" d="M 5167,14862 L 5512,14552 "/>
       </g>
      </g>
      <g class="com.sun.star.drawing.LineShape">
       <g id="id43">
        <rect class="BoundingBox" stroke="none" fill="none" x="4717" y="14030" width="439" height="360"/>
        <path fill="none" stroke="rgb(0,0,0)" stroke-width="106" stroke-linejoin="miter" d="M 4749,14345 L 5124,14073 "/>
       </g>
      </g>
      <g class="com.sun.star.drawing.LineShape">
       <g id="id44">
        <rect class="BoundingBox" stroke="none" fill="none" x="4294" y="12834" width="1562" height="1116"/>
        <path fill="none" stroke="rgb(0,0,0)" stroke-width="370" stroke-linejoin="miter" d="M 4387,13788 L 5762,12994 "/>
       </g>
      </g>
      <g class="com.sun.star.drawing.LineShape">
       <g id="id45">
        <rect class="BoundingBox" stroke="none" fill="none" x="4063" y="12958" width="468" height="288"/>
        <path fill="none" stroke="rgb(0,0,0)" stroke-width="106" stroke-linejoin="miter" d="M 4085,13196 L 4508,13007 "/>
       </g>
      </g>
      <g class="com.sun.star.drawing.LineShape">
       <g id="id46">
        <rect class="BoundingBox" stroke="none" fill="none" x="3830" y="12381" width="476" height="246"/>
        <path fill="none" stroke="rgb(0,0,0)" stroke-width="106" stroke-linejoin="miter" d="M 3847,12575 L 4288,12432 "/>
       </g>
      </g>
      <g class="com.sun.star.drawing.LineShape">
       <g id="id47">
        <rect class="BoundingBox" stroke="none" fill="none" x="3663" y="11785" width="477" height="202"/>
        <path fill="none" stroke="rgb(0,0,0)" stroke-width="106" stroke-linejoin="miter" d="M 3675,11933 L 4128,11837 "/>
       </g>
      </g>
      <g class="com.sun.star.drawing.LineShape">
       <g id="id48">
        <rect class="BoundingBox" stroke="none" fill="none" x="3565" y="11175" width="474" height="157"/>
        <path fill="none" stroke="rgb(0,0,0)" stroke-width="106" stroke-linejoin="miter" d="M 3571,11277 L 4032,11228 "/>
       </g>
      </g>
      <g class="com.sun.star.drawing.LineShape">
       <g id="id49">
        <rect class="BoundingBox" stroke="none" fill="none" x="3536" y="10428" width="1589" height="372"/>
        <path fill="none" stroke="rgb(0,0,0)" stroke-width="370" stroke-linejoin="miter" d="M 3537,10614 L 5124,10614 "/>
       </g>
      </g>
      <g class="com.sun.star.drawing.LineShape">
       <g id="id50">
        <rect class="BoundingBox" stroke="none" fill="none" x="3565" y="9896" width="474" height="157"/>
        <path fill="none" stroke="rgb(0,0,0)" stroke-width="106" stroke-linejoin="miter" d="M 3571,9950 L 4032,9999 "/>
       </g>
      </g>
      <g class="com.sun.star.drawing.LineShape">
       <g id="id51">
        <rect class="BoundingBox" stroke="none" fill="none" x="3663" y="9241" width="477" height="202"/>
        <path fill="none" stroke="rgb(0,0,0)" stroke-width="106" stroke-linejoin="miter" d="M 3675,9294 L 4128,9390 "/>
       </g>
      </g>
      <g class="com.sun.star.drawing.LineShape">
       <g id="id52">
        <rect class="BoundingBox" stroke="none" fill="none" x="3830" y="8601" width="476" height="246"/>
        <path fill="none" stroke="rgb(0,0,0)" stroke-width="106" stroke-linejoin="miter" d="M 3847,8652 L 4288,8795 "/>
       </g>
      </g>
      <g class="com.sun.star.drawing.LineShape">
       <g id="id53">
        <rect class="BoundingBox" stroke="none" fill="none" x="4063" y="7982" width="468" height="288"/>
        <path fill="none" stroke="rgb(0,0,0)" stroke-width="106" stroke-linejoin="miter" d="M 4085,8031 L 4508,8220 "/>
       </g>
      </g>
      <g class="com.sun.star.drawing.LineShape">
       <g id="id54">
        <rect class="BoundingBox" stroke="none" fill="none" x="4294" y="7278" width="1562" height="1116"/>
        <path fill="none" stroke="rgb(0,0,0)" stroke-width="370" stroke-linejoin="miter" d="M 4387,7439 L 5762,8233 "/>
       </g>
      </g>
      <g class="com.sun.star.drawing.LineShape">
       <g id="id55">
        <rect class="BoundingBox" stroke="none" fill="none" x="4717" y="6838" width="439" height="360"/>
        <path fill="none" stroke="rgb(0,0,0)" stroke-width="106" stroke-linejoin="miter" d="M 4749,6882 L 5124,7154 "/>
       </g>
      </g>
      <g class="com.sun.star.drawing.LineShape">
       <g id="id56">
        <rect class="BoundingBox" stroke="none" fill="none" x="5131" y="6325" width="418" height="391"/>
        <path fill="none" stroke="rgb(0,0,0)" stroke-width="106" stroke-linejoin="miter" d="M 5167,6365 L 5512,6675 "/>
       </g>
      </g>
      <g class="com.sun.star.drawing.LineShape">
       <g id="id57">
        <rect class="BoundingBox" stroke="none" fill="none" x="5597" y="5859" width="391" height="418"/>
        <path fill="none" stroke="rgb(0,0,0)" stroke-width="106" stroke-linejoin="miter" d="M 5637,5895 L 5947,6240 "/>
       </g>
      </g>
      <g class="com.sun.star.drawing.LineShape">
       <g id="id58">
        <rect class="BoundingBox" stroke="none" fill="none" x="6110" y="5445" width="360" height="439"/>
        <path fill="none" stroke="rgb(0,0,0)" stroke-width="106" stroke-linejoin="miter" d="M 6154,5477 L 6426,5852 "/>
       </g>
      </g>
      <g class="com.sun.star.drawing.LineShape">
       <g id="id59">
        <rect class="BoundingBox" stroke="none" fill="none" x="6550" y="5022" width="1116" height="1562"/>
        <path fill="none" stroke="rgb(0,0,0)" stroke-width="370" stroke-linejoin="miter" d="M 6711,5115 L 7505,6490 "/>
       </g>
      </g>
      <g class="com.sun.star.drawing.LineShape">
       <g id="id60">
        <rect class="BoundingBox" stroke="none" fill="none" x="7254" y="4791" width="288" height="468"/>
        <path fill="none" stroke="rgb(0,0,0)" stroke-width="106" stroke-linejoin="miter" d="M 7303,4813 L 7492,5236 "/>
       </g>
      </g>
      <g class="com.sun.star.drawing.LineShape">
       <g id="id61">
        <rect class="BoundingBox" stroke="none" fill="none" x="7873" y="4558" width="246" height="476"/>
        <path fill="none" stroke="rgb(0,0,0)" stroke-width="106" stroke-linejoin="miter" d="M 7924,4575 L 8067,5016 "/>
       </g>
      </g>
      <g class="com.sun.star.drawing.LineShape">
       <g id="id62">
        <rect class="BoundingBox" stroke="none" fill="none" x="8513" y="4391" width="202" height="477"/>
        <path fill="none" stroke="rgb(0,0,0)" stroke-width="106" stroke-linejoin="miter" d="M 8566,4403 L 8662,4856 "/>
       </g>
      </g>
      <g class="com.sun.star.drawing.LineShape">
       <g id="id63">
        <rect class="BoundingBox" stroke="none" fill="none" x="9168" y="4293" width="157" height="474"/>
        <path fill="none" stroke="rgb(0,0,0)" stroke-width="106" stroke-linejoin="miter" d="M 9222,4299 L 9271,4760 "/>
       </g>
      </g>
      <g class="com.sun.star.drawing.PolyPolygonShape">
       <g id="id64">
        <rect class="BoundingBox" stroke="none" fill="none" x="8381" y="7153" width="6244" height="4727"/>
        <path fill="rgb(0,0,0)" stroke="none" d="M 8382,11218 L 8860,11878 14623,7481 14563,7263 14369,7154 8382,11218 Z "/>
        <path fill="none" stroke="rgb(52,101,164)" d="M 8382,11218 L 8860,11878 14623,7481 14563,7263 14369,7154 8382,11218 Z "/>
       </g>
      </g>
      <g class="com.sun.star.drawing.ClosedBezierShape">
       <g id="id65">
        <rect class="BoundingBox" stroke="none" fill="none" x="9647" y="10375" width="478" height="478"/>
        <path fill="rgb(229,0,28)" stroke="none" d="M 9680,10495 C 9701,10459 9731,10429 9767,10408 9803,10387 9844,10376 9886,10376 9927,10376 9968,10387 10004,10408 10040,10429 10070,10459 10091,10495 10112,10531 10123,10572 10123,10614 10123,10655 10112,10696 10091,10732 10070,10768 10040,10798 10004,10819 9968,10840 9927,10851 9886,10851 9844,10851 9803,10840 9767,10819 9731,10798 9701,10768 9680,10732 9659,10696 9648,10655 9648,10614 9648,10572 9659,10531 9680,10495 Z "/>
       </g>
      </g>
      <g class="com.sun.star.drawing.ClosedBezierShape">
       <g id="id66">
        <rect class="BoundingBox" stroke="none" fill="none" x="9515" y="10243" width="742" height="742"/>
        <path fill="rgb(0,0,0)" stroke="none" d="M 10255,10614 C 10255,10678 10239,10742 10206,10798 10174,10854 10126,10902 10070,10934 10014,10967 9950,10983 9886,10983 9821,10983 9757,10967 9701,10934 9645,10902 9597,10854 9565,10798 9532,10742 9516,10678 9516,10614 9516,10549 9533,10485 9565,10429 9598,10373 9645,10325 9701,10293 9757,10260 9821,10244 9886,10244 9950,10244 10014,10260 10070,10293 10126,10325 10173,10373 10206,10429 10238,10485 10255,10549 10255,10614 Z "/>
       </g>
      </g>
      <g class="com.sun.star.drawing.LineShape">
       <g id="id67">
        <rect class="BoundingBox" stroke="none" fill="none" x="9700" y="4238" width="372" height="1589"/>
        <path fill="none" stroke="rgb(0,0,0)" stroke-width="370" stroke-linejoin="miter" d="M 9886,5825 L 9886,4238 "/>
       </g>
      </g>
      <g class="com.sun.star.drawing.PolyPolygonShape">
       <g id="id68">
        <rect class="BoundingBox" stroke="none" fill="none" x="9480" y="9079" width="1777" height="7788"/>
        <path fill="rgb(229,0,28)" stroke="none" d="M 9480,9140 L 9691,9079 11256,16850 11158,16866 9480,9140 Z "/>
       </g>
      </g>
      <g class="com.sun.star.drawing.ClosedBezierShape">
       <g id="id69">
        <rect class="BoundingBox" stroke="none" fill="none" x="9677" y="10389" width="450" height="450"/>
        <path fill="rgb(229,0,28)" stroke="none" d="M 10126,10614 C 10126,10653 10114,10691 10095,10725 10076,10759 10047,10788 10013,10807 9979,10826 9941,10838 9902,10838 9862,10838 9824,10826 9790,10807 9757,10788 9728,10759 9709,10725 9690,10691 9678,10653 9678,10614 9678,10574 9689,10536 9709,10502 9727,10469 9757,10440 9790,10421 9824,10402 9862,10390 9902,10390 9941,10390 9979,10402 10013,10421 10047,10440 10076,10469 10095,10502 10114,10536 10126,10574 10126,10614 Z "/>
       </g>
      </g>
     </g>
    </g>
   </g>
  </g>
 </g>
</svg>